<?xml version="1.0" encoding="UTF-8" standalone="no"?>
<!-- Created with Inkscape (http://www.inkscape.org/) -->

<svg
   width="64mm"
   height="64mm"
   viewBox="0 0 63.999999 64"
   version="1.1"
   id="svg1"
   xml:space="preserve"
   xmlns="http://www.w3.org/2000/svg"
   xmlns:svg="http://www.w3.org/2000/svg"><defs
     id="defs1" /><g
     id="layer1"><path
       id="path1"
       style="fill:#ffffff;fill-opacity:1;stroke-width:0.213096"
       d="m 31.97867,15.836206 c -5.738532,0 -9.837506,2.627227 -9.837506,8.301554 0,5.359088 4.355053,7.145483 4.355053,7.145483 0,0 -5.328735,0.05234 -5.328735,8.143506 0,5.464169 3.227854,9.457207 10.862153,9.457207 7.6343,0 11.169999,-4.255453 11.169999,-9.351841 0,-8.143711 -5.175018,-8.196611 -5.175018,-8.196611 0,0 3.996243,-1.733718 3.996243,-7.250426 0,-5.464168 -3.996233,-8.248872 -10.042189,-8.248872 z m -0.04074,3.17914 c 3.797985,0 6.207067,2.684291 5.830621,5.962811 -0.305618,2.661673 -3.43316,5.201696 -3.43316,5.201696 0,0 -1.946786,-0.26264 -4.457395,-1.838843 -2.510606,-1.576201 -3.556721,-2.82835 -3.607958,-4.719792 -0.04803,-1.773227 1.660253,-4.423628 5.667896,-4.605872 z m -2.623835,13.581175 c 0,0 9.777561,1.153033 9.588836,7.333751 -0.128321,4.20246 -4.413696,6.379362 -7.846568,5.74888 -4.179668,-0.767639 -5.892208,-4.150718 -5.431076,-7.618364 0.461132,-3.467643 3.688808,-5.464267 3.688808,-5.464267 z" /></g></svg>
